#!OML:ASF G:\JayActor3\Patient Classification 1\Patient 1\Session 6\male.ASF
:FULLY-SPECIFIED
:DEGREES
365
root 7.02133 15.6437 -3.42805 59.2751 -99.2037 -54.9851
lowerback 14.5079 -0.0373883 1.57206
upperback 14.8301 -1.11502 -1.54212
thorax 7.78124 -0.817112 -2.51201
lowerneck -6.08797 1.37615 2.70423
upperneck 39.0207 0.158053 -3.31162
head 14.451 -0.543723 -1.98757
rclavicle -1.74931e-014 -9.54166e-015
rhumerus -3.12501 43.3213 -46.5662
rradius 110.468
rwrist -49.212
rhand 43.5758 -17.2768
rfingers 7.12502
rthumb 65.2847 -23.9724
lclavicle -1.74931e-014 -9.54166e-015
lhumerus -9.45382 -53.7269 53.8863
lradius 96.9796
lwrist 60.4574
lhand 33.8137 47.6878
lfingers 7.12502
lthumb 57.099 64.191
rfemur -66.3556 -24.5709 6.68217
rtibia 89.8997
rfoot 12.7511 -3.74316
rtoes 5.61366
lfemur -26.133 20.9904 -32.0371
ltibia 44.0345
lfoot -22.005 3.57122
ltoes 1.91732
366
root 6.99039 15.6445 -3.37362 57.1806 -100.108 -53.2424
lowerback 14.2583 -0.0313204 1.65325
upperback 14.7147 -1.07367 -1.99575
thorax 7.77966 -0.758912 -3.04845
lowerneck -6.11143 1.59278 2.54291
upperneck 38.8361 0.768184 -3.94783
head 14.3931 -0.386412 -2.13644
rclavicle 7.55382e-015 3.85642e-014
rhumerus -3.29488 44.8581 -46.1703
rradius 109.147
rwrist -47.9225
rhand 43.8715 -17.7
rfingers 7.12502
rthumb 65.5161 -23.9935
lclavicle 7.55382e-015 3.85642e-014
lhumerus -9.50084 -55.0438 53.0648
lradius 94.8657
lwrist 59.396
lhand 34.0724 48.3025
lfingers 7.12502
lthumb 57.3262 64.6135
rfemur -66.719 -24.4636 6.08803
rtibia 90.2559
rfoot 12.7268 -4.48394
rtoes 6.66373
lfemur -25.3526 21.8736 -32.7452
ltibia 43.4647
lfoot -21.9941 3.42177
ltoes 2.47338
367
root 6.95293 15.6518 -3.31964 55.1025 -100.918 -51.5019
lowerback 13.9574 -0.0311494 1.8711
upperback 14.5818 -1.0281 -2.41582
thorax 7.78935 -0.687166 -3.627
lowerneck -6.06285 1.81217 2.39211
upperneck 38.5289 1.37929 -4.56404
head 14.2662 -0.221091 -2.27286
rclavicle 1.47101e-014 -5.1684e-015
rhumerus -3.50243 46.3733 -45.8298
rradius 107.779
rwrist -46.9768
rhand 44.2763 -18.2039
rfingers 7.12502
rthumb 65.8308 -23.9339
lclavicle 1.47101e-014 -5.1684e-015
lhumerus -9.65078 -56.2496 52.4585
lradius 92.7106
lwrist 58.2334
lhand 34.2553 49.1164
lfingers 7.12502
lthumb 57.4865 65.2897
rfemur -66.9068 -24.219 5.56205
rtibia 90.4792
rfoot 12.745 -5.00617
rtoes 7.72165
lfemur -24.5385 22.787 -33.2912
ltibia 42.8638
lfoot -21.9537 3.27902
ltoes 2.71329
368
root 6.91267 15.6635 -3.27393 52.6935 -101.734 -49.399
lowerback 13.5793 0.0377417 2.04692
upperback 14.441 -0.896866 -2.78136
thorax 7.84269 -0.578578 -4.13134
lowerneck -5.93982 2.0442 2.25455
upperneck 38.1818 1.99723 -5.17803
head 14.1109 -0.047625 -2.40725
rclavicle 1.19271e-014 4.37326e-014
rhumerus -3.71917 47.8915 -45.5218
rradius 106.386
rwrist -46.161
rhand 44.6429 -18.5654
rfingers 7.12502
rthumb 66.1135 -23.7721
lclavicle 1.19271e-014 4.37326e-014
lhumerus -9.89187 -57.4297 51.9539
lradius 90.5826
lwrist 56.8408
lhand 34.2565 49.5901
lfingers 7.12502
lthumb 57.4876 65.7625
rfemur -67.0301 -23.7372 5.12844
rtibia 90.5695
rfoot 12.9193 -5.25889
rtoes 8.36034
lfemur -23.72 23.801 -33.7047
ltibia 42.1873
lfoot -21.8739 3.1026
ltoes 2.82558
369
root 6.87173 15.6751 -3.22591 50.7723 -102.598 -47.8774
lowerback 13.2874 0.0795316 2.24061
upperback 14.3295 -0.806632 -3.16713
thorax 7.88412 -0.490659 -4.66529
lowerneck -5.87229 2.27699 2.03794
upperneck 37.8199 2.61675 -5.76518
head 13.9668 0.121505 -2.51513
rclavicle -7.95139e-015 -1.59028e-014
rhumerus -3.84153 49.3903 -45.1942
rradius 104.92
rwrist -45.377
rhand 45.1548 -18.9405
rfingers 7.12502
rthumb 66.5047 -23.3947
lclavicle -7.95139e-015 -1.59028e-014
lhumerus -10.3025 -58.399 51.6627
lradius 88.4295
lwrist 55.0596
lhand 34.2776 49.6279
lfingers 7.12502
lthumb 57.5061 65.7843
rfemur -66.9358 -23.2494 4.50491
rtibia 90.5384
rfoot 13.3607 -5.29484
rtoes 9.0131
lfemur -22.7334 24.717 -34.133
ltibia 41.4502
lfoot -21.8063 2.95109
ltoes 2.97024
370
root 6.8335 15.6899 -3.17875 49.3576 -103.304 -46.8313
lowerback 13.0069 0.0468359 2.57127
upperback 14.2243 -0.807053 -3.51693
thorax 7.92185 -0.437576 -5.2333
lowerneck -5.91567 2.53414 1.71254
upperneck 37.4272 3.26814 -6.27441
head 13.8375 0.302459 -2.56529
rclavicle 1.03368e-014 1.31198e-014
rhumerus -3.94169 50.9321 -45.0055
rradius 103.324
rwrist -44.4488
rhand 45.501 -19.1616
rfingers 7.12502
rthumb 66.7667 -23.0921
lclavicle 1.03368e-014 1.31198e-014
lhumerus -10.6913 -59.1118 51.436
lradius 86.2972
lwrist 52.9612
lhand 34.2433 49.8283
lfingers 7.12502
lthumb 57.476 66.0107
rfemur -66.7494 -22.7982 3.95021
rtibia 90.3848
rfoot 14.0698 -5.47778
rtoes 9.48655
lfemur -21.7653 25.3613 -34.466
ltibia 40.6692
lfoot -21.6907 2.90172
ltoes 3.0546
371
root 6.79474 15.7022 -3.14108 47.1054 -104.299 -44.8552
lowerback 12.6518 0.161373 2.71765
upperback 14.0563 -0.621426 -3.89452
thorax 7.95065 -0.306239 -5.73911
lowerneck -5.96465 2.81755 1.53078
upperneck 37.2339 3.94627 -6.91611
head 13.8159 0.491141 -2.70152
rclavicle 3.18055e-015 2.62396e-014
rhumerus -3.82654 52.4178 -44.6025
rradius 101.774
rwrist -43.5472
rhand 46.454 -19.7948
rfingers 7.12502
rthumb 67.477 -22.2192
lclavicle 3.18055e-015 2.62396e-014
lhumerus -11.2346 -59.7027 51.3338
lradius 84.1189
lwrist 50.6595
lhand 34.0966 49.6336
lfingers 7.12502
lthumb 57.3474 65.9264
rfemur -66.7239 -21.894 3.43743
rtibia 90.1633
rfoot 14.9272 -6.12275
rtoes 10.7629
lfemur -20.8802 26.3095 -34.8212
ltibia 39.8337
lfoot -21.5847 2.78409
ltoes 3.32785
372
root 6.75699 15.7161 -3.10431 45.2276 -105.177 -43.4235
lowerback 12.4699 0.199956 2.94212
upperback 13.9182 -0.538785 -4.25168
thorax 7.91168 -0.22547 -6.26069
lowerneck -5.83725 3.06571 1.2415
upperneck 37.0811 4.43337 -7.14555
head 13.7502 0.632596 -2.67609
rclavicle -6.75868e-015 -6.55989e-014
rhumerus -3.51562 54.0647 -44.0441
rradius 100.123
rwrist -42.5414
rhand 46.8684 -19.9017
rfingers 7.12502
rthumb 67.7804 -21.6405
lclavicle -6.75868e-015 -6.55989e-014
lhumerus -12.0169 -60.0647 51.5012
lradius 81.8637
lwrist 48.1336
lhand 33.9689 49.2783
lfingers 7.12502
lthumb 57.2354 65.6665
rfemur -66.378 -21.0371 2.87529
rtibia 89.8532
rfoot 15.7441 -6.96964
rtoes 11.6823
lfemur -19.7665 27.0095 -35.0313
ltibia 38.9509
lfoot -21.4686 2.85322
ltoes 3.42209
373
root 6.71739 15.731 -3.0708 43.8166 -106.033 -42.4605
lowerback 12.3304 0.216477 3.15023
upperback 13.7473 -0.483733 -4.61733
thorax 7.81023 -0.161576 -6.78024
lowerneck -5.84893 3.37028 1.02597
upperneck 36.8633 5.0998 -7.67441
head 13.7119 0.827691 -2.76029
rclavicle -5.1684e-015 -2.26615e-014
rhumerus -3.3199 55.6899 -43.6952
rradius 98.3953
rwrist -41.55
rhand 46.73 -20.095
rfingers 7.12502
rthumb 67.6795 -22.0648
lclavicle -5.1684e-015 -2.26615e-014
lhumerus -12.8593 -60.1804 51.8469
lradius 79.5397
lwrist 45.4696
lhand 34.027 49.322
lfingers 7.12502
lthumb 57.2864 65.6669
rfemur -65.9196 -20.222 2.23562
rtibia 89.4726
rfoot 16.5567 -7.84177
rtoes 12.398
lfemur -18.6019 27.5505 -35.2772
ltibia 37.9945
lfoot -21.3541 3.04234
ltoes 3.46852
374
root 6.67749 15.741 -3.04327 42.6772 -106.948 -41.7573
lowerback 12.1467 0.251702 3.19085
upperback 13.5635 -0.415344 -4.96874
thorax 7.71797 -0.107435 -7.19025
lowerneck -5.83404 3.68919 0.830307
upperneck 36.6492 5.77548 -8.20836
head 13.6755 1.02933 -2.84927
rclavicle -2.82274e-014 5.88403e-014
rhumerus -3.00467 57.3401 -43.2288
rradius 96.6569
rwrist -40.0221
rhand 47.0952 -20.2881
rfingers 7.12502
rthumb 67.9451 -21.6433
lclavicle -2.82274e-014 5.88403e-014
lhumerus -13.7114 -60.1177 52.1891
lradius 77.1884
lwrist 42.952
lhand 34.0442 49.3227
lfingers 7.12502
lthumb 57.3014 65.6547
rfemur -65.4846 -19.3494 1.52672
rtibia 89.0486
rfoot 17.4238 -8.6511
rtoes 13.3455
lfemur -17.4363 27.9982 -35.6082
ltibia 36.9557
lfoot -21.2482 3.40384
ltoes 3.42314
